<svg xmlns='http://www.w3.org/2000/svg' width='400' height='400'>
      <defs><style>.cls-path-cs4-male-3R{clip-path:url(#clip-path-cs4-male-3R)}.cls-path-cs4-male-3L{clip-path:url(#clip-path-cs4-male-3L)}.cls-multipy{mix-blend-mode: multiply;}.cls-softlight{mix-blend-mode: soft-light;}.cls-overlay{mix-blend-mode: overlay;}.cls-colorburn{mix-blend-mode: color-burn;}.cls-screen{mix-blend-mode: screen;}.cls-lighten{ mix-blend-mode: darken;}</style>
      <clipPath id="clip-path-cs4-male-3R"><path fill="#none" d="M253,177.91a3.49,3.49,0,0,1-.76,2.36c-4.64,6.53-34.34,5.72-35.17,5a1.16,1.16,0,0,0-.49-.23,2.88,2.88,0,0,0-1.74.44h0c.23-.18.14-1.68.16-1.95a6.94,6.94,0,0,1,.51-2.11c.07-.19.16-.38.24-.58a23.57,23.57,0,0,1,4.4-6.77c6.15-6.37,16.66-5,24.28-2.37C246.92,172.65,252.71,174.69,253,177.91Z"></path></clipPath><clipPath id="clip-path-cs4-male-3L"><path fill="#none" d="M147,178.78a3.48,3.48,0,0,0,.76,2.36c4.64,6.54,34.34,5.73,35.17,5.05a1.14,1.14,0,0,1,.49-.22,2.89,2.89,0,0,1,1.74.43h0c-.23-.17-.14-1.67-.16-1.94a6.87,6.87,0,0,0-.51-2.11c-.07-.19-.16-.38-.24-.58a23.75,23.75,0,0,0-4.4-6.78c-6.15-6.36-16.66-5-24.28-2.36C153.08,173.53,147.29,175.56,147,178.78Z"></path></clipPath></defs><path fill="#ba6759" stroke="#000" stroke-miterlimit="10" d="M143.85,323.53C135,341.05,73.75,364,45.75,371s-46,29-46,29h400.5s-18-22-46-29-89.21-29.95-98.1-47.47" class="canChange" style="fill:rgb(126, 72, 72)"></path><path fill="#ba6759" stroke="#000" stroke-miterlimit="10" d="M256.75,334.5c-1.71-10.27-.32-21.32.67-31.59,1.12-11.72,2.89-23.37,4.08-35.09A345.78,345.78,0,0,0,262.75,233h-129c1,8.5,1.81,17.05,3,25.52,2,13.87,4.1,27.72,5.53,41.66,1.14,11.13,2.8,23.19.94,34.32" class="canChange" style="fill:rgb(126, 72, 72)"></path><path fill="#59003c" opacity="0.5" d="M262.75,233a345.78,345.78,0,0,1-1.25,34.82c-1.19,11.72-3,23.37-4.08,35.09-.54,5.65-1.21,11.52-1.41,17.38-.11,1.1-.24,2.18-.36,3.24-.45,3.93-1,7.58-1.55,11-6.77,39.79-21,42.79-24.6,13a129.83,129.83,0,0,0-2.18-13,61.56,61.56,0,0,0-3.48-11c-5.6-12.73-14.62-16-28.34-16-11.26,0-19.34,8.55-24.27,16a60.65,60.65,0,0,0-5.73,11s-.2-4.71-.52-11c-.38-7.59-.93-17.46-1.48-24-.74-8.86-14.56-6.27-21.74-4.32-1.39-12.26-3.24-24.45-5-36.66-1.21-8.38-2-16.84-3-25.25l2.41-.27Z" class="cls-overlay"></path><polyline fill="#ba6759" points="113.68 157.76 112.61 178.01 127.53 223.71 273.53 222.77 287.39 173.75 284.19 160.96 250.09 93.82 208.99 49.08 192.09 49.08" class="canChange" style="fill:rgb(126, 72, 72)"></polyline><path fill="#ba6759" stroke="#000" stroke-miterlimit="10" d="M202.14,49.06s55.41-3.19,75.66,36.24,9.59,87.38,9.59,87.38" class="canChange" style="fill:rgb(126, 72, 72)"></path><path fill="#ba6759" stroke="#000" stroke-miterlimit="10" d="M282.15,180.08s3.19-12.75,13.77-6.72c7.09,4,5.4,16.52,4.34,23.06-1.38,8.48-3.5,17.86-9.6,24.29-3.55,3.74-16.92,12-18.19,2.06" class="canChange" style="fill:rgb(126, 72, 72)"></path><path fill="#ba6759" stroke="#000" stroke-miterlimit="10" d="M294.52,178.94s-16,7-13.45,18.66,6.28,10,5.09,14.82" class="canChange" style="fill:rgb(126, 72, 72)"></path><path fill="#ba6759" stroke="#000" stroke-miterlimit="10" d="M293.48,200.7s6.34-17.21-4.86-18.24" class="canChange" style="fill:rgb(126, 72, 72)"></path><path fill="#ba6759" stroke="#000" stroke-miterlimit="10" d="M117.85,180.08s-3.19-12.75-13.77-6.72c-7.09,4-5.4,16.52-4.34,23.06,1.38,8.48,3.5,17.86,9.6,24.29,3.55,3.74,16.92,12,18.19,2.06" class="canChange" style="fill:rgb(126, 72, 72)"></path><path fill="#ba6759" stroke="#000" stroke-miterlimit="10" d="M105.48,178.94s16,7,13.45,18.66-6.28,10-5.09,14.82" class="canChange" style="fill:rgb(126, 72, 72)"></path><path fill="#ba6759" stroke="#000" stroke-miterlimit="10" d="M106.52,200.7s-6.34-17.21,4.86-18.24" class="canChange" style="fill:rgb(126, 72, 72)"></path><path fill="#ba6759" stroke="#000" stroke-miterlimit="10" d="M198.4,49.06h-.23s-55.42-3.19-75.66,36.24-9.59,87.38-9.59,87.38" class="canChange" style="fill:rgb(126, 72, 72)"></path><path fill="#59003c" opacity="0.5" d="M300.26,196.42c-1.39,8.48-3.51,17.86-9.6,24.29-3.55,3.73-16.91,12-18.18,2.07l-11.11.07c.38-15.56,16.22-32.42,14.29-48.57-1.09-9.17-18.6-22.07-21.31-24.51a125.6,125.6,0,0,0,5.86-16.51,100.71,100.71,0,0,0,2.9-13.81c2.13-16.15-.7-33.3-21-36.28l-1.5.31c-2.23.46-6.84,1.35-13.15,2.26-13.27,1.91-34,3.93-55.94,2.22-2.31-.18-4.64-.39-7-.67-4.33-.49-8.68-1.15-13-2,0,0-14.37,15-12.14,36.84a48,48,0,0,0,2,9.44,58.07,58.07,0,0,0,7,14.46s-31.43,14.39-24,42.1c2.72,10.13,20.32,30,16.54,35.48l-13.36.09-.09-.3c-1.75,9-14.61,1-18.09-2.7-6.09-6.43-8.21-15.81-9.6-24.29-1.07-6.54-2.75-19,4.35-23.07,3.85-2.18,6.71-1.89,8.8-.63v-.09c-.38-1.76-10.26-48.65,9.6-87.33,20.25-39.43,75.67-36.24,75.67-36.24h4s2.58-.15,6.83,0h0c15.46.6,52.94,5.31,68.82,36.23,19.59,38.16,10.24,84.31,9.62,87.23,2.06-1.09,4.83-1.25,8.48.82C303,177.4,301.33,189.88,300.26,196.42Z" class="cls-overlay"></path><path fill="#fff" opacity="0.26" d="M284.29,214.19a3.28,3.28,0,0,0-2.07-2.37,4.42,4.42,0,0,0-3.2.1,2.81,2.81,0,0,0-1.78,1.73c-.24.93.25,1.88.4,2.83s0,2,.6,2.76a2.3,2.3,0,0,0,3,0C282.56,218.31,284.62,216,284.29,214.19Z" class="cls-softlight"></path><path fill="#fff" opacity="0.26" d="M115.23,214.19a3.27,3.27,0,0,1,2.06-2.37,4.45,4.45,0,0,1,3.21.1,2.8,2.8,0,0,1,1.77,1.73c.24.93-.25,1.88-.39,2.83s0,2-.61,2.76a2.28,2.28,0,0,1-3,0C117,218.31,114.9,216,115.23,214.19Z" class="cls-softlight"></path><path fill="#fff" opacity="0.26" d="M110.48,184.94s-4.26,7.46-1.06,19.18c0,0-5.11-7.27-4.69-11.1s.69-10,3.76-9.58S110.48,184.94,110.48,184.94Z" class="cls-softlight"></path><path fill="#fff" opacity="0.26" d="M289.25,184.94s4.27,7.46,1.07,19.18c0,0,5.1-7.27,4.68-11.1s-.69-10-3.75-9.58S289.25,184.94,289.25,184.94Z" class="cls-softlight"></path><path fill="#ba6759" stroke="#000" stroke-miterlimit="10" d="M281.91,176.87,273.15,222a238.18,238.18,0,0,1-8.52,23.38c-1.49,3.56-3,7.13-4.6,10.63a96.7,96.7,0,0,1-5.12,9.72c-3.5,5.72-8.87,9-12.81,14.15-2.51,3.3-2.63,7.75-4.8,11.25a26.94,26.94,0,0,1-1.71,2.41,26.48,26.48,0,0,1-3.4,3.46c-4,.32-8.45.64-12.7.94-8.67.57-16.59,1.06-18.74,1.18h-.48c-1,0-9.66-.56-19.2-1.19-5-.34-10.29-.73-14.84-1.11a.3.3,0,0,1-.08-.08h0a26.15,26.15,0,0,1-3.55-3.81c-.45-.58-.86-1.19-1.25-1.81-2.18-3.5-2.29-7.95-4.81-11.25-3.94-5.18-9.29-8.43-12.79-14.15A108.14,108.14,0,0,1,137.27,253c-4.74-12.4-9.23-25.39-12.74-36-1-2.88-1.86-5.58-2.66-8.06-.61-5.53-1.37-10.94-2.08-16.37-.57-4.32-1.1-8.64-1.49-13.07-.07-.78-.14-1.69-.21-2.7" class="canChange" style="fill:rgb(126, 72, 72)"></path><path fill="#59003c" opacity="0.5" d="M269.17,233.86c-1.42,3.88-2.95,7.72-4.54,11.52-1.49,3.56-3,7.13-4.6,10.63a96.7,96.7,0,0,1-5.12,9.72c-3.5,5.72-8.87,9-12.81,14.15q-.22.3-.42.6C243.13,255.86,259.25,240.83,269.17,233.86Z" class="cls-overlay"></path><path fill="#59003c" opacity="0.5" d="M157.6,281.61a10.77,10.77,0,0,0-1.07-1.73c-3.94-5.18-9.29-8.43-12.79-14.15A108.14,108.14,0,0,1,137.27,253c-2.41-6.31-4.76-12.76-6.94-19C140.42,241.23,156.59,256.55,157.6,281.61Z" class="cls-overlay"></path><path fill="#fff" opacity="0" d="M268.49,213.57a320.48,320.48,0,0,1-75.26,8.59,331.09,331.09,0,0,1-61.7-5.64q-3.92-.75-7.71-1.59l.71,2.14c1.73,5.2,3.69,11,5.8,17,2.18,6.22,4.53,12.67,6.94,19a108.14,108.14,0,0,0,6.47,12.69c3.5,5.72,8.85,9,12.79,14.15a10.77,10.77,0,0,1,1.07,1.73h0c1.54,3,1.92,6.59,3.74,9.51.39.62.8,1.23,1.25,1.81a26.15,26.15,0,0,0,3.55,3.81h0a.3.3,0,0,0,.08.08c4.55.38,9.81.77,14.84,1.11,9.54.63,18.19,1.16,19.2,1.19h.48c2.15-.12,10.07-.61,18.74-1.18,4.25-.3,8.69-.62,12.7-.94a26.48,26.48,0,0,0,3.4-3.46,26.94,26.94,0,0,0,1.71-2.41c2-3.29,2.27-7.42,4.38-10.65q.19-.3.42-.6c3.94-5.18,9.31-8.43,12.81-14.15A96.7,96.7,0,0,0,260,256c1.61-3.5,3.11-7.07,4.6-10.63,1.59-3.8,3.12-7.64,4.54-11.52s2.78-7.87,4-11.86l2-10.14Q271.85,212.76,268.49,213.57ZM214,289.33c-8,1.29-5.36-22-5.36-22l-21.43,1.29s2.68,23.26-5.37,22S142.92,257,144.26,240.25c0,0-1.34-6.46,52.33-2.59l2.64-1.29c53.68-3.86,52.33,2.59,52.33,2.59C252.91,255.75,222.05,288,214,289.33Z" class="cls-multipy"></path><path fill="#270A09" stroke="#000" stroke-miterlimit="10" stroke-width="2" d="M301.1,144.2c1,13.6-9.1,19-9.1,20.8v4.5c0,1.8-1-0.9-1.2,0.4s-2.9,1.4-2.9,1.4v2.7    c0,2.7-10.2,18.1-11.5,20.5c-0.3,0.6-0.8,1.4-1.3,2.3c-0.1-0.6-0.2-1.3-0.4-2c-1-4.6-1.5-9.3-1.5-14c0-0.7-0.1-1.4-0.4-2    c0.1-1,0.2-2.1,0.2-3.1c0-0.1,0-0.2,0-0.3c0.2-0.8,0.4-1.6,0.5-2.4c1.8-8.5,0.9-18.9-0.2-26.1c-0.8-5.1-1.6-8.6-1.6-8.6    c-4.8-3.9-2.3-7.9-3.7-19.7c0-0.1,0-0.3-0.1-0.4c-1.6-11.5-14.8-14.9-17.7-18s-14.4,0.4-18.5-0.5s-27.5,10-30.4,11    s-10.3-0.2-13.3-2.9s-21.4-5.4-21.4-5.4c-14.2,10.8,9.1,36.1,9.1,36.1c-12.2,1.8-23.4-23.5-23.4-23.5c-6.1,9,5.1,28,5.1,28    c-22.4,0-20.4-32.5-20.4-32.5l-6.5,8.4c-3.5,1.2-5.7,28.7-6.7,35s2.4,28.7,2.4,28.7l0.3,2.5c0.1,2.6-0.3,5.1-1.2,7.5    c-0.2-0.7-0.8-1.4-1.4-1.8c-2-0.9-9.2-7.2-8.8-11.1s-12.5-11.5-12.5-14.2s-3-9.9-4.1-12.7s1-9.9,0-10.8s-6.1-7.2-7-12.9    s1.9-19.7,1.5-22.8s6.5-6.9,6.5-6.9L90.6,97c-5.4-1.6-9.9-5.5-12.2-10.7c0,0,4.1,0.9,6.7,1.4s10.6-3.2,16.7-10.4    c5.1-6.1,8.1-5.1,8.9-4.7c-2-1.6-6.1-12.9-6.8-14.9c1.2,1.9,12.1,5.1,12.1,5.1c0-3.6,5.1-4.5,5.1-4.5c-5,0-20-15.3-20.4-15.8    c3,2.3,27.8,2.2,27.8,2.2c7.4-5.4,22.1-7.2,35-10.8c12-3.4,14.3,0.3,14.6,0.8c-0.3-1.3-9.1-14.4-9.1-14.4    c7.1-2.7,17.3,6.3,17.3,6.3c3-0.9,15.3,0.1,15.3,0.1c8.2-0.8,24.3,5.3,24.3,5.3c-1-5.4-23.4-7.2-23.4-7.2    c20.3-6.3,39.7,2.7,48.8,9c9.1,6.3,2,23.5,2,23.5c7.1-4.5,24.4,3.6,25.4,8.1S294,89,299.1,95.4c0.8,1,1.4,2.1,1.8,3.2    c1.4,3.4,2,7.7,2.3,12c0.4,5,0.4,9.9,0.7,12.9c0.8,6.5,11.4,13.4,11.4,13.4c-1.9,0-14.1-3.3-15.2-3.6    C300.3,134,300.5,136.5,301.1,144.2z" class="canChange" style="fill:null"></path><path fill="none" stroke="#000" stroke-miterlimit="10" d="M135.8,66c0,0,6.1,24.4,26.4,27.1c0,0-1,7.2,5.1,9"></path><path fill="none" stroke="#000" stroke-miterlimit="10" d="M107.1,66c0,0,9.9,19.4,30.3,23"></path><path fill="none" stroke="#000" stroke-miterlimit="10" d="M98.8,99.6c0,0,26.3,10.2,43.6-5.2"></path><line fill="none" stroke="#000" stroke-miterlimit="10" x1="145.5" y1="99.9" x2="154.1" y2="118.2"></line><path fill="none" stroke="#000" stroke-miterlimit="10" d="M127,44.7c6.3,3.7,13.7,5.2,21,4.1c12.2-1.8,26.5-8.9,39.2-3.5s13.1,7,13.1,7"></path><path fill="none" stroke="#000" stroke-miterlimit="10" d="M254.8,65.1c0,0,7.1,9.9,2,16.3S230,99.9,230,99.9"></path><path fill="none" stroke="#000" stroke-miterlimit="10" d="M276.6,79.8c0,0-16.8,23.5-27.2,20"></path><path fill="none" stroke="#000" stroke-miterlimit="10" d="M214.9,53.8c0,0,16,14.4,7.9,30.7S200,111.4,200,111.4"></path><path opacity="0.4" fill="#fff" d="M303.2,110.6c-2.4-2-2.9,2.1-2.1,10.3c1,10,0,10-9,1s1,9,1,21s-6-5-11-16s0,0-3,13c-1.4,6.1-3.5,7.6-5.6,7.1     c-0.8-5.1-1.6-8.6-1.6-8.6c-4.8-3.9-2.3-7.9-3.7-19.7c0-0.1,0-0.3-0.1-0.4c0.3-2.1,0.7-4.3,1-6.5c2-14,2,0,5,12s1-3,0.1-16.9     s2.9,4.9,9.9,10.9s0-3-1-13s4,4,7,7s1-4,1-12c0-5.8,6.3-3.2,9.8-1.3C302.3,102,302.9,106.3,303.2,110.6z"></path><path opacity="0.4" fill="#fff" d="M241.1,45.9c0,0,11,13,11,17c0.1,0.8,0.2,1.6,0.1,2.3c-0.1,0.7-0.8,1.2-1.5,1.1c-0.3-0.1-0.6-0.3-0.8-0.6     c-1.3-1.3-2.6-2.7-3.7-4.1c-0.1,1.3-0.4,2.6-1,3.8c-0.5-0.8-1.2-1.6-1.9-2.2l-1.2,2.1l-2.5-2.8l-1.4,3.1     c-1.1-1.5-2.6-2.7-4.2-3.6c-0.8,6.8-2,13.5-3.7,20.1c-4.7-4.6-9-9.5-12.9-14.9l-0.9,4.9l-3.5-4.2l-1,4l-1.6-1.9     c-0.1,0.9-0.3,1.8-0.7,2.6c-0.9-1.2-1.7-2.5-2.3-3.9c-1.6-0.4-2.7,1.5-3,3.1c-0.7,3.2-1,6.4-0.9,9.6c-2.4-2.7-5.1-5.3-7.9-7.7     l-2.6,5.5l-2.8-3c-0.4-0.7-1.2-0.9-1.9-0.5c-0.2,0.1-0.4,0.3-0.5,0.5c-2,1.9-3.7,4-5.3,6.3l-5.1-1.2c-0.7,2.8-0.2,5.7,1.3,8.2     c1.4,2.2,3.7,4.7,2.5,7s-4.7,1.7-6.6,0.1s-3.1-4.1-5.3-5.5l1,4.7C168.7,92,164,91,160,90.2c-4.3-0.9-8.4-2.3-12.4-4.1l0.1-7.3     c3.2,2.3,6.6,4.2,10.1,5.7l-0.8-5.5l2.4,1.6c0-1.2,1-2.2,2.2-2.3c1.2,0,2.3,0.2,3.4,0.8c-0.6-6.1-2.2-12-4.7-17.6     c9.3,1.4,18.4,4.3,26.9,8.4l-0.2-5.2c0.9,1.3,2.6,1.6,3.8,0.7c0.8-0.6,1.3-1.6,1.2-2.6c-0.1-1-0.6-2.4,0.3-2.8l2.1,1.1     c0.3-0.6,0.3-1.3,0.1-2l3,1.5l-8.1-9.6l16.2,6.8l-0.9-7l1,1l-5-4.6c5.7,2.2,11.3,4.7,16.8,7.5c-0.5-1.7-0.6-3.4-0.4-5.1     c2.2,1.1,4.5,2,6.9,2.6c0.7-0.7,1.2-1.6,1.6-2.5l4.8,1.7c1-2.5,0.4-5.4-1.4-7.3c2.5,2,5.3,3.7,8.2,5c0.3-1.2,0.6-2.1,0.9-3.3     c0.1-0.6,0.4-1.2,0.8-1.8c0.4-0.5,1.2-0.6,1.8-0.3C240.7,44.1,240.9,45.6,241.1,45.9z"></path><path opacity="0.4" fill="#fff" d="M99.8,118l0.1,5c1-1.6,2.2-3.1,3.6-4.4v4.2c0.2-0.7,0.5-1.4,1.1-1.9c0.5,3.2,0.8,6.4,0.8,9.6     c0,1.8,0.1,3.9,1.4,5.1l7.8-14.8c1.2,2.8,1.4,5.9,0.6,8.8c0.9-2,2.2-3.8,3.8-5.2c0.1-0.2,0.3-0.3,0.6-0.3c0.2,0,0.4,0.3,0.5,0.5     c0.5,1.2,0.7,2.4,0.7,3.6c0.8-1.9,2.2-3.6,3.9-4.9c0.1,2.8-1.2,5.3-2.2,7.9c-2.2,5.8-2.7,12.2-3.2,18.4     c-0.3,4.3-0.6,8.6-0.8,12.9c0.3-5.7-0.7-11.5-2.8-16.9c-0.9,2.7-1.9,5.4-3.2,8c-0.6-2.3-1-4.7-1.2-7.1c-0.3,1.5-0.8,2.9-1.5,4.2     c-1.5-2.5-2.6-5.2-3.4-8c-0.2,1.5-0.6,3-1.3,4.4c-2-4.6-3.5-9.4-4.3-14.3c-1.1,1.9-2.1,3.9-3,6c-0.8-2-1.4-4.1-1.7-6.2     c-0.1,1.1-0.4,2.1-0.9,3c0.2-0.3-1.1-3.9-1.1-4.6c0.1-1.7,0.5-3.3,1-4.9C95.8,123,97.4,120.2,99.8,118z"></path><path fill="#472121" stroke="#000" stroke-miterlimit="10" d="M267.39,156.59c-9.35-4.94-43.21,6.9-50.85,7.79s-8.07-8.17-8.07-8.17a13,13,0,0,1,2.22-1.15c10-4.2,36.57-6,44.49-5.21a18.37,18.37,0,0,1,6.74,2A15,15,0,0,1,267.39,156.59Z" class="canChange" style="fill:null"></path><path fill="#472121" stroke="#000" stroke-miterlimit="10" d="M191.53,156.21s-.44,9.06-8.07,8.17-41.5-12.73-50.85-7.79a16,16,0,0,1,9-6.14,19.4,19.4,0,0,1,3.17-.6c8.51-.89,38.55,1.3,46.44,6.18Z" class="canChange" style="fill:null"></path><path opacity="0.32" d="M191.26,156l.27.18s-.44,9.06-8.07,8.17-41.5-12.73-50.85-7.79a16,16,0,0,1,9-6.14c8.33,3.47,32.66,13,42.11,9.14A55.94,55.94,0,0,0,191.26,156Z" class="cls-overlay"></path><path opacity="0.32" d="M267.39,156.59c-9.35-4.94-43.21,6.9-50.85,7.79s-8.07-8.17-8.07-8.17a13,13,0,0,1,2.22-1.15c4.25,3.25,11.35,6.8,20.28,4.21,14.85-4.32,22.25-8.11,31-7.41A15,15,0,0,1,267.39,156.59Z" class="cls-overlay"></path><path fill="#72004d" opacity="0.17" d="M223.05,162.74a34.52,34.52,0,0,0-7.22,7.32c-1.87,2.49-4.34,5.49-3.52,8.6.64,2.44,2.94,4.38,5.3,5.72,0,0,1.33-3.74,2.8-4.59s14.06-6.08,16.9-4.84c0,0-8.05-6.44-2.92-8.13,0,0-9.32-.57,3.47-5.11-.37.14-2.53-.79-3-.89a18.16,18.16,0,0,0-6.89-.26A11.68,11.68,0,0,0,223.05,162.74Z" class="cls-overlay"></path><g opacity="0.32" class="cls-overlay show"><path fill="#72004d" d="M214.38,180.45a23.4,23.4,0,0,1,5.88-9.38,25.45,25.45,0,0,1,9.45-5.93,20.9,20.9,0,0,1,11.11-.75,20,20,0,0,1,5.24,2,21.69,21.69,0,0,1,4.46,3.33,21.74,21.74,0,0,0-9.81-4.73,21.06,21.06,0,0,0-10.76.9,26.46,26.46,0,0,0-15.57,14.6Z"></path></g><path pacity="0.32" d="M248.47,187.38s-4.26,2.56-11.72,1.71" class="cls-overlay"></path><path fill="#0b0000" d="M221.8,172.64c9.11-6,21.45-5.79,30.74-.36,2,1.18,5.19,3.38,3,6-1.78,2.14-5.07,3.08-7.55,3.86a96,96,0,0,1-16.58,3.45l-.21,0"></path><path fill="#f0e1ef" d="M253,177.91a3.49,3.49,0,0,1-.76,2.36c-4.64,6.53-34.34,5.72-35.17,5a1.16,1.16,0,0,0-.49-.23,2.88,2.88,0,0,0-1.74.44h0c.23-.18.14-1.68.16-1.95a6.94,6.94,0,0,1,.51-2.11c.07-.19.16-.38.24-.58a23.57,23.57,0,0,1,4.4-6.77c6.15-6.37,16.66-5,24.28-2.37C246.92,172.65,252.71,174.69,253,177.91Z"></path><path fill="#ffc09e" d="M216.55,185.09a2.88,2.88,0,0,0-1.74.44h0c.23-.18.14-1.68.16-1.95a6.94,6.94,0,0,1,.51-2.11A37.51,37.51,0,0,0,216.55,185.09Z"></path><g class="cls-path-cs4-male-3R show"><ellipse fill="#a68b51" stroke="#000" stroke-miterlimit="10" cx="232.66" cy="175.87" rx="9.77" ry="8.28" transform="translate(-5.9 8.09) rotate(-1.97)" class="canChange" style="fill:rgb(7, 2, 2)"></ellipse><ellipse cx="232.61" cy="175.03" rx="6.83" ry="5.79" transform="translate(-5.87 8.08) rotate(-1.97)"></ellipse></g><path opacity="0.4" d="M253,177.91c-19.29-10.82-33.77,2.68-38.16,7.62h0c.23-.18.14-1.68.16-1.95a7.78,7.78,0,0,1,.75-2.69,23.57,23.57,0,0,1,4.4-6.77c6.15-6.37,16.66-5,24.28-2.37C246.92,172.65,252.71,174.69,253,177.91Z"></path><circle fill="#fff" cx="227.89" cy="175.83" r="2.63"></circle><path fill="#72004d" opacity="0.17" d="M177,163.61a34.8,34.8,0,0,1,7.22,7.33c1.87,2.48,4.34,5.49,3.52,8.6-.64,2.43-2.94,4.38-5.3,5.72,0,0-1.33-3.75-2.8-4.59s-14.06-6.09-16.9-4.84c0,0,8.05-6.44,2.92-8.13,0,0,9.32-.57-3.47-5.11.37.13,2.53-.79,3-.89a18,18,0,0,1,6.89-.26A11.66,11.66,0,0,1,177,163.61Z" class="cls-overlay"></path><g opacity="0.32" class="cls-overlay show"><path fill="#72004d" d="M185.62,181.32a26.48,26.48,0,0,0-15.57-14.59,20.84,20.84,0,0,0-10.76-.9,21.82,21.82,0,0,0-9.81,4.72,22,22,0,0,1,4.46-3.32,20,20,0,0,1,5.24-2,20.9,20.9,0,0,1,11.11.75,25.45,25.45,0,0,1,9.45,5.93A23.43,23.43,0,0,1,185.62,181.32Z"></path></g><path pacity="0.32" d="M151.53,188.26s4.26,2.56,11.72,1.71" class="cls-overlay"></path><path fill="#0b0000" d="M178.2,173.52c-9.11-6-21.45-5.79-30.74-.36-2,1.18-5.19,3.38-3,6,1.78,2.14,5.07,3.09,7.55,3.87a96.91,96.91,0,0,0,16.58,3.45l.21,0"></path><path fill="#f0e1ef" d="M147,178.78a3.48,3.48,0,0,0,.76,2.36c4.64,6.54,34.34,5.73,35.17,5.05a1.14,1.14,0,0,1,.49-.22,2.89,2.89,0,0,1,1.74.43h0c-.23-.17-.14-1.67-.16-1.94a6.87,6.87,0,0,0-.51-2.11c-.07-.19-.16-.38-.24-.58a23.75,23.75,0,0,0-4.4-6.78c-6.15-6.36-16.66-5-24.28-2.36C153.08,173.53,147.29,175.56,147,178.78Z"></path><path fill="##ffc09e" d="M183.45,186a2.89,2.89,0,0,1,1.74.43h0c-.23-.17-.14-1.67-.16-1.94a6.87,6.87,0,0,0-.51-2.11A37.51,37.51,0,0,1,183.45,186Z"></path><g class="cls-path-cs4-male-3L show"><ellipse fill="#a68b51" stroke="#000" stroke-miterlimit="10" cx="167.34" cy="176.75" rx="8.28" ry="9.77" transform="translate(-15.05 337.92) rotate(-88.03)" class="canChange" style="fill:rgb(7, 2, 2)"></ellipse><ellipse cx="167.39" cy="175.91" rx="5.79" ry="6.83" transform="translate(-14.16 337.16) rotate(-88.03)"></ellipse></g><path opacity="0.4" d="M147,178.78c19.29-10.81,33.77,2.69,38.16,7.62h0c-.23-.17-.14-1.67-.16-1.94a7.78,7.78,0,0,0-.75-2.69,23.75,23.75,0,0,0-4.4-6.78c-6.15-6.36-16.66-5-24.28-2.36C153.08,173.53,147.29,175.56,147,178.78Z"></path><circle fill="#fff" cx="172.11" cy="176.7" r="2.63"></circle><path fill="#3d3b32" d="M49.83,156.66l0,0h0A0,0,0,0,1,49.83,156.66Z"></path><path fill="#8c2f72" opacity="0.6" d="M175.73,254.43S183,264.9,199.57,264.9,225,254.27,225,254.27,215.28,259,199.89,259,175.73,254.43,175.73,254.43Z" class="cls-multipy"></path><path fill="#ba7070" d="M165.84,241.86s6,11.59,13.17,16.58c9.05,6.33,27.51,6.33,39.48,1.94,6.87-2.52,14.82-17.76,14.82-17.76l-33.42,9.45Z" class="canChange" style="fill:rgb(129, 76, 76)"></path><path d="M233.31,240.13s-10.19,4.16-33.42,4.16v0c-23.23,0-33.42-4.16-33.42-4.16-2.28.28,0,2.49,0,2.49,12.54,16.78,49.51,19.72,66.84,0C233.31,242.62,235.59,240.41,233.31,240.13Z"></path><path fill="#fff" d="M170.73,241.4v2.1s10.37,6.3,29.16,6.3,28-6,28-6l.61-2.26a142,142,0,0,1-28.65,2.77A144.76,144.76,0,0,1,170.73,241.4Z"></path><path fill="#742637" d="M167.77,240.58s9-.21,32.61-.21,32.38,0,32.38,0-11.25,4-32.87,4S167.77,240.58,167.77,240.58Z" class="canChange" style="fill:rgb(129, 76, 76)"></path><path fill="#8c2f72" opacity="0.6" d="M230.63,238.07s4.43,2.93,5.72,5.11a5.37,5.37,0,0,0-2.86-5.62Z" class="cls-multipy"></path><path fill="#8c2f72" opacity="0.6" d="M169.37,238.07s-4.43,2.93-5.72,5.11a5.37,5.37,0,0,1,2.86-5.62Z" class="cls-multipy"></path><path fill="#ffd9d9" d="M214.08,256.55a10.05,10.05,0,0,0,5.42.26c2.53-.76,6.66-5.36,6.66-5.36S216.81,255.35,214.08,256.55Z" class="cls-softlight"></path><path fill="#1e4e63" stroke="#000" stroke-miterlimit="10" d="M399.71,400H.28S5,382.24,5.71,378.07c.12-.65,3.41-2.19,8.87-4.34,18.06-7.09,59.91-20.72,89.63-30.4l2.42-.79,1.21-.37a16.6,16.6,0,0,0,1.63-.56,1,1,0,0,0,.47-.36,2.92,2.92,0,0,1,.62-1c.57-.6,2.08.37,2.9.1l3.49-1.14,5-1.64,2.49-.83,5.51-1.83,1.46-.49c.34-.13.67-.24,1-.34,4.1,4.36,10,8.24,17.16,11.45,13,5.8,30.34,9.39,49.43,9.5h1c26.68,0,50.08-6.77,63.13-16.94a38.82,38.82,0,0,0,4.45-4c3.51,1.2,8.88,3,15.48,5.13.35.13.7.24,1.07.36l1.66.54,3.44,1.13h0c38.12,12.44,104.47,33.88,105,36.87.39,2.09,1.74,7.55,3,12.52S399.71,400,399.71,400Z" class="canChange" style="fill:null"></path><path fill="#fff" stroke="#000" stroke-miterlimit="10" d="M283.06,339.16c-6.65,13.9-41.3,24.5-83.06,24.5s-76.39-10.59-83-24.49l5-1.64,2.49-.83,5.51-1.83,1.46-.49c.34-.13.67-.24,1-.34,4.1,4.36,10,8.24,17.16,11.45,13.22,5.9,31,9.51,50.43,9.51,26.68,0,50.08-6.77,63.13-16.94a38.82,38.82,0,0,0,4.45-4C271.09,335.23,276.46,337,283.06,339.16Z"></path><path fill="#d177b8" opacity="0.32" d="M200.42,335s-2.64.15-7.06.22c-.46-.13-.92-.26-1.36-.4h.09Q196.2,335.1,200.42,335Z" class="cls-multipy"></path><path fill="#d077b7" opacity="0.32" d="M399.71,400h-25.6c12-2.92,19.45-6.08,23.18-9.41C398.56,395.55,399.71,400,399.71,400Z" class="cls-multipy"></path><path fill="#d177b8" opacity="0.32" d="M110,341.25s18.22,15.63,33.48,19.53c-9.06-1.88-31-7.51-35.59-18.61a16.6,16.6,0,0,0,1.63-.56,1,1,0,0,0,.47-.37Z" class="cls-multipy"></path><path fill="#ff918a" d="M147.37,361.53a27.78,27.78,0,0,1-3.94-.75C145.86,361.29,147.37,361.53,147.37,361.53Z"></path><path fill="#612b78" opacity="0.32" d="M149.57,345.49c-7.88,1.95-16.33,4.13-24.94,6.46l-4.46,1.22c-39.82,11-81.43,24.95-83.48,35.93a52,52,0,0,0-.95,10.9H.29S5,382.24,5.71,378.07c.13-.66,3.42-2.2,8.87-4.34,18.07-7.09,59.92-20.73,89.63-30.41l2.42-.78,1.21-.37a16.6,16.6,0,0,0,1.63-.56,1,1,0,0,0,.47-.37,3.08,3.08,0,0,1,.62-1c.57-.61,2.09.36,2.91.1l8.5-2.79,2.5-.83c2-.67,3.9-1.29,5.51-1.83l1.45-.49,1-.34C136.51,338.39,142.37,342.27,149.57,345.49Z" class="cls-multipy"></path><path fill="#612b78" opacity="0.32" d="M399.72,400H355c-1.07-3.74-2.18-8.07-3.21-12.88-2.74-12.79-59-37.09-88.61-49.06a39.9,39.9,0,0,0,4.46-4c3.69,1.26,9.46,3.16,16.54,5.49l1.66.54,3.45,1.13h0c38.12,12.44,104.46,33.87,105,36.87.39,2.08,1.75,7.55,3,12.52S399.72,400,399.72,400Z" class="cls-multipy"></path><g opacity="0.38" class="show"><path d="M211,201.22A59.5,59.5,0,0,1,214,208a51.89,51.89,0,0,1,2.21,7.15,24.68,24.68,0,0,1,.5,3.75,7.82,7.82,0,0,1-.61,3.79,25.62,25.62,0,0,1-2.29,3,18.54,18.54,0,0,1-1.33,1.33,4.34,4.34,0,0,1-1.57,1,4.54,4.54,0,0,0,1.43-1.15,14.56,14.56,0,0,0,1.18-1.42,24.84,24.84,0,0,0,2.06-3,7.92,7.92,0,0,0,.44-3.51,23.61,23.61,0,0,0-.54-3.62,61.87,61.87,0,0,0-2-7.12C212.71,205.86,211.85,203.54,211,201.22Z"></path></g><g opacity="0.38" class="show"><path d="M188.71,202.2c-.89,2.32-1.76,4.64-2.54,7a61.15,61.15,0,0,0-2,7.11,23.64,23.64,0,0,0-.55,3.62,8.06,8.06,0,0,0,.44,3.51,27.47,27.47,0,0,0,2.06,3,17.76,17.76,0,0,0,1.18,1.42,4.8,4.8,0,0,0,1.43,1.15,4.24,4.24,0,0,1-1.57-1,15.07,15.07,0,0,1-1.32-1.33,24.06,24.06,0,0,1-2.29-3,7.78,7.78,0,0,1-.61-3.79,22.27,22.27,0,0,1,.5-3.74,49.41,49.41,0,0,1,2.21-7.16A61.91,61.91,0,0,1,188.71,202.2Z"></path></g><g opacity="0.38" class="show"><path d="M209,228.36a17.67,17.67,0,0,0,1.48-1.76,3.35,3.35,0,0,0,.51-1c0-.17,0-.32-.05-.38a.73.73,0,0,0-.44-.08c-1.48.07-2.67,1.17-3.78,2.18l-3.3,3.21c-.55.54-1.1,1.06-1.63,1.6a6.09,6.09,0,0,1-.93.8,1.67,1.67,0,0,1-1.39.3,3.26,3.26,0,0,1-1.1-.67c-.3-.23-.58-.48-.88-.75-.57-.53-1.17-1.05-1.71-1.58-1.1-1.07-2.22-2.11-3.3-3.2a14.17,14.17,0,0,0-1.75-1.45,3.79,3.79,0,0,0-2-.75.76.76,0,0,0-.43.09c-.09.05-.1.21-.06.37a3.21,3.21,0,0,0,.52,1,16.22,16.22,0,0,0,1.47,1.75,13.21,13.21,0,0,1-1.63-1.63,3.64,3.64,0,0,1-.63-1,.63.63,0,0,1,.11-.69,1,1,0,0,1,.65-.22,4.24,4.24,0,0,1,2.28.72,14.53,14.53,0,0,1,1.87,1.41c1.14,1,2.26,2.09,3.39,3.14.56.54,1.13,1,1.69,1.52.28.25.57.5.89.74a2.63,2.63,0,0,0,.85.52c.45.17,1.09-.38,1.61-.89s1.12-1.07,1.67-1.59c1.13-1.05,2.22-2.14,3.38-3.14a14.63,14.63,0,0,1,1.88-1.41,4.26,4.26,0,0,1,2.28-.71,1,1,0,0,1,.65.21.64.64,0,0,1,.11.7,3.45,3.45,0,0,1-.63,1A12.63,12.63,0,0,1,209,228.36Z"></path></g><path fill="#72004d" opacity="0.17" d="M187,206.83s2.43,14.3,3.52,15.81,16.62,3.73,19.25,1,2.74-18.81,2.74-18.83a7.93,7.93,0,0,0,.94,1.68,34.27,34.27,0,0,1,1.9,4.44c1.34,3.86,2.06,8.57.63,12.64-1.59,4.56-5.11,6.88-7.8,9.49-2.43,2.35-4.8,5-7.52,6.5s-5.19-.74-7.67-2.79c-3.68-3.06-8.86-7.47-9.56-14.61a25.84,25.84,0,0,1,.51-7.46,23.43,23.43,0,0,1,1.75-6.17C185.82,208.3,187,206.8,187,206.83Z" class="canChange cls-overlay" style="fill:null"></path><path opacity="0.42" d="M192.26,226.43s-5.5-3.39-4-.65S192.26,226.43,192.26,226.43Z" class="cls-overlay"></path><path opacity="0.42" d="M206.88,226.73s5.5-3.39,4-.65S206.88,226.73,206.88,226.73Z" class="cls-overlay"></path><path fill="#72004d" opacity="0.17" d="M207.83,176a7,7,0,0,0-.87,8.15l1.74,2.72S205.22,181.38,207.83,176Z" class="canChange cls-overlay" style="fill:null"></path><path fill="#72004d" opacity="0.17" d="M190.45,173.24s5.22,3.62,5.22,9.95-5.22,17.2-5.22,17.2,3.48-11.76,2.61-18.1S190.45,173.24,190.45,173.24Z" class="canChange cls-overlay" style="fill:null"></path></svg>