<svg xmlns="http://www.w3.org/2000/svg" viewBox="0 0 504.123 504.123" style="enable-background:new 0 0 504.123 504.123" xml:space="preserve"><linearGradient id="a" gradientUnits="userSpaceOnUse" x1="-5.376" y1="578.335" x2="-5.376" y2="648.372" gradientTransform="matrix(7.8769 0 0 -7.8769 364.054 4969.67)"><stop offset="0" style="stop-color:#29d3da"/><stop offset=".519" style="stop-color:#07f"/><stop offset=".999" style="stop-color:#064093"/><stop offset="1" style="stop-color:#084698"/></linearGradient><path style="fill:url(#a)" d="M478.799 146.361c-30.09-41.685-72.649-73.728-122.234-90.734-109.954 25.411-191.953 123.872-191.953 241.546 0 18.282 2.048 36.084 5.797 53.248 17.353-119.997 120.572-212.196 245.382-212.196a247.566 247.566 0 0 1 63.008 8.136z"/><linearGradient id="b" gradientUnits="userSpaceOnUse" x1="-17.586" y1="582.005" x2="6.834" y2="653.243" gradientTransform="matrix(7.8769 0 0 -7.8769 364.054 4969.67)"><stop offset=".012" style="stop-color:#e0b386"/><stop offset=".519" style="stop-color:#da498c"/><stop offset="1" style="stop-color:#961484"/></linearGradient><path style="fill:url(#b)" d="M467.259 76.611C427.552 36.903 376.123 9.728 319.709 0 205.556 46.49 134.246 166.896 154.663 293.793c3.167 19.716 8.476 38.55 15.51 56.391-2.143-132.395 93.152-249.73 227.738-271.407a270.817 270.817 0 0 1 69.348-2.166z"/><linearGradient id="c" gradientUnits="userSpaceOnUse" x1="-13.726" y1="589.877" x2="-7.772" y2="620.755" gradientTransform="matrix(7.8769 0 0 -7.8769 364.054 4969.67)"><stop offset=".012" style="stop-color:#e0b386"/><stop offset=".519" style="stop-color:#da498c"/><stop offset="1" style="stop-color:#961484"/></linearGradient><path style="fill:url(#c)" d="M356.573 55.627C246.619 81.038 164.62 179.499 164.62 297.173c0 17.841 1.969 35.202 5.553 51.972-1.615-131.97 93.507-248.753 227.738-270.368 2.095-.339 4.183-.512 6.278-.803-14.943-8.988-30.839-16.597-47.616-22.347z"/><linearGradient id="d" gradientUnits="userSpaceOnUse" x1="-24.487" y1="604.815" x2="5.383" y2="685.337" gradientTransform="matrix(7.8769 0 0 -7.8769 364.054 4969.67)"><stop offset="0" style="stop-color:#29d3da"/><stop offset=".519" style="stop-color:#07f"/><stop offset=".999" style="stop-color:#064093"/><stop offset="1" style="stop-color:#084698"/></linearGradient><path style="fill:url(#d)" d="M321.725 33.666C276.89 14.47 226.658 9.161 178.034 19.535 101.006 93.877 82.4 213.977 139.831 309.673c8.909 14.88 19.275 28.349 30.688 40.464-44.442-106.031-5.506-231.416 95.988-292.336a235.576 235.576 0 0 1 55.218-24.135z"/><linearGradient id="e" gradientUnits="userSpaceOnUse" x1="-15.481" y1="596.725" x2="-17.302" y2="636.684" gradientTransform="matrix(7.8769 0 0 -7.8769 364.054 4969.67)"><stop offset="0" style="stop-color:#29d3da"/><stop offset=".519" style="stop-color:#07f"/><stop offset=".999" style="stop-color:#064093"/><stop offset="1" style="stop-color:#084698"/></linearGradient><path style="fill:url(#e)" d="M279.828 20.299C189.495 76.091 136.736 182.43 154.663 293.793a266.98 266.98 0 0 0 3.048 15.691c-20.874-95.815 20.047-198.404 108.796-251.683a235.19 235.19 0 0 1 55.217-24.127c-13.524-5.798-27.568-10.161-41.896-13.375z"/><linearGradient id="f" gradientUnits="userSpaceOnUse" x1="-23.059" y1="619.493" x2="-23.059" y2="549.458" gradientTransform="matrix(7.8769 0 0 -7.8769 364.054 4969.67)"><stop offset="0" style="stop-color:#29d3da"/><stop offset=".519" style="stop-color:#07f"/><stop offset=".999" style="stop-color:#064093"/><stop offset="1" style="stop-color:#084698"/></linearGradient><path style="fill:url(#f)" d="M25.324 357.77c30.09 41.685 72.649 73.728 122.234 90.734 109.954-25.411 191.953-123.872 191.953-241.546 0-18.282-2.048-36.084-5.797-53.248-17.353 119.997-120.572 212.197-245.366 212.197a247.642 247.642 0 0 1-63.024-8.137z"/><linearGradient id="g" gradientUnits="userSpaceOnUse" x1="-10.85" y1="615.824" x2="-35.269" y2="544.586" gradientTransform="matrix(7.8769 0 0 -7.8769 364.054 4969.67)"><stop offset=".012" style="stop-color:#e0b386"/><stop offset=".519" style="stop-color:#da498c"/><stop offset="1" style="stop-color:#961484"/></linearGradient><path style="fill:url(#g)" d="M36.864 427.52c39.708 39.708 91.136 66.875 147.551 76.603 114.168-46.482 185.462-166.896 165.045-293.786-3.167-19.716-8.476-38.55-15.51-56.391 2.143 132.395-93.152 249.73-227.738 271.407a270.752 270.752 0 0 1-69.348 2.167z"/><linearGradient id="h" gradientUnits="userSpaceOnUse" x1="-14.712" y1="607.951" x2="-20.662" y2="577.076" gradientTransform="matrix(7.8769 0 0 -7.8769 364.054 4969.67)"><stop offset=".012" style="stop-color:#e0b386"/><stop offset=".519" style="stop-color:#da498c"/><stop offset="1" style="stop-color:#961484"/></linearGradient><path style="fill:url(#h)" d="M147.551 448.496c109.954-25.411 191.953-123.872 191.953-241.546 0-17.841-1.969-35.202-5.553-51.972 1.623 131.978-93.507 248.745-227.738 270.375-2.095.339-4.183.512-6.278.803 14.958 8.989 30.838 16.598 47.616 22.34z"/><linearGradient id="i" gradientUnits="userSpaceOnUse" x1="-3.947" y1="593.015" x2="-33.815" y2="512.495" gradientTransform="matrix(7.8769 0 0 -7.8769 364.054 4969.67)"><stop offset="0" style="stop-color:#29d3da"/><stop offset=".519" style="stop-color:#07f"/><stop offset=".999" style="stop-color:#064093"/><stop offset="1" style="stop-color:#084698"/></linearGradient><path style="fill:url(#i)" d="M182.414 470.465c44.812 19.204 95.043 24.505 143.675 14.131 77.028-74.342 95.634-194.442 38.219-290.139-8.925-14.872-19.291-28.349-30.704-40.464 44.449 106.031 5.522 231.408-95.988 292.336a235.43 235.43 0 0 1-55.202 24.136z"/><linearGradient id="j" gradientUnits="userSpaceOnUse" x1="-12.951" y1="601.105" x2="-11.135" y2="561.145" gradientTransform="matrix(7.8769 0 0 -7.8769 364.054 4969.67)"><stop offset="0" style="stop-color:#29d3da"/><stop offset=".519" style="stop-color:#07f"/><stop offset=".999" style="stop-color:#064093"/><stop offset="1" style="stop-color:#084698"/></linearGradient><path style="fill:url(#j)" d="M224.295 483.832c90.34-55.792 143.092-162.123 125.172-273.495a254.952 254.952 0 0 0-3.048-15.683c20.874 95.807-20.047 198.404-108.796 251.676a235.08 235.08 0 0 1-55.201 24.127c13.501 5.805 27.545 10.161 41.873 13.375z"/></svg>